<mxfile host="app.diagrams.net" agent="Mozilla/5.0 (Windows NT 10.0; Win64; x64) AppleWebKit/537.36 (KHTML, like Gecko) Chrome/134.0.0.0 Safari/537.36 Edg/134.0.0.0" version="26.1.0">
  <diagram name="第 1 页" id="Wn0tkcndtycrgx5PYjIO">
    <mxGraphModel dx="2026" dy="1107" grid="1" gridSize="10" guides="1" tooltips="1" connect="1" arrows="1" fold="1" page="1" pageScale="1" pageWidth="827" pageHeight="1169" math="0" shadow="0">
      <root>
        <mxCell id="0" />
        <mxCell id="1" parent="0" />
        <mxCell id="uodfpMHbg1HzAjFqGIbb-2" value="测试校验流程" style="swimlane;childLayout=stackLayout;resizeParent=1;resizeParentMax=0;startSize=20;horizontal=0;horizontalStack=1;" vertex="1" parent="1">
          <mxGeometry x="310" y="400" width="740" height="390" as="geometry" />
        </mxCell>
        <mxCell id="uodfpMHbg1HzAjFqGIbb-3" value="测试同事" style="swimlane;startSize=20;" vertex="1" parent="uodfpMHbg1HzAjFqGIbb-2">
          <mxGeometry x="20" width="120" height="390" as="geometry" />
        </mxCell>
        <mxCell id="uodfpMHbg1HzAjFqGIbb-31" style="edgeStyle=orthogonalEdgeStyle;rounded=0;orthogonalLoop=1;jettySize=auto;html=1;exitX=0.5;exitY=1;exitDx=0;exitDy=0;entryX=0.5;entryY=0;entryDx=0;entryDy=0;" edge="1" parent="uodfpMHbg1HzAjFqGIbb-3" source="uodfpMHbg1HzAjFqGIbb-9" target="uodfpMHbg1HzAjFqGIbb-20">
          <mxGeometry relative="1" as="geometry" />
        </mxCell>
        <mxCell id="uodfpMHbg1HzAjFqGIbb-9" value="abd" style="rounded=1;whiteSpace=wrap;html=1;" vertex="1" parent="uodfpMHbg1HzAjFqGIbb-3">
          <mxGeometry x="20" y="40" width="80" height="50" as="geometry" />
        </mxCell>
        <mxCell id="uodfpMHbg1HzAjFqGIbb-20" value="操作埋点" style="rounded=1;whiteSpace=wrap;html=1;" vertex="1" parent="uodfpMHbg1HzAjFqGIbb-3">
          <mxGeometry x="20" y="215" width="80" height="50" as="geometry" />
        </mxCell>
        <mxCell id="uodfpMHbg1HzAjFqGIbb-4" value="车机SDK" style="swimlane;startSize=20;" vertex="1" parent="uodfpMHbg1HzAjFqGIbb-2">
          <mxGeometry x="140" width="120" height="390" as="geometry" />
        </mxCell>
        <mxCell id="uodfpMHbg1HzAjFqGIbb-35" style="edgeStyle=orthogonalEdgeStyle;rounded=0;orthogonalLoop=1;jettySize=auto;html=1;exitX=0.5;exitY=1;exitDx=0;exitDy=0;entryX=0.5;entryY=0;entryDx=0;entryDy=0;" edge="1" parent="uodfpMHbg1HzAjFqGIbb-4" source="uodfpMHbg1HzAjFqGIbb-10" target="uodfpMHbg1HzAjFqGIbb-17">
          <mxGeometry relative="1" as="geometry" />
        </mxCell>
        <mxCell id="uodfpMHbg1HzAjFqGIbb-10" value="输入openid&lt;br&gt;输入did&lt;br&gt;生成sessionid" style="rounded=1;whiteSpace=wrap;html=1;align=left;" vertex="1" parent="uodfpMHbg1HzAjFqGIbb-4">
          <mxGeometry x="20" y="40" width="80" height="50" as="geometry" />
        </mxCell>
        <mxCell id="uodfpMHbg1HzAjFqGIbb-36" style="edgeStyle=orthogonalEdgeStyle;rounded=0;orthogonalLoop=1;jettySize=auto;html=1;exitX=0.5;exitY=1;exitDx=0;exitDy=0;" edge="1" parent="uodfpMHbg1HzAjFqGIbb-4" source="uodfpMHbg1HzAjFqGIbb-17" target="uodfpMHbg1HzAjFqGIbb-21">
          <mxGeometry relative="1" as="geometry" />
        </mxCell>
        <mxCell id="uodfpMHbg1HzAjFqGIbb-17" value="握手成功" style="rounded=1;whiteSpace=wrap;html=1;" vertex="1" parent="uodfpMHbg1HzAjFqGIbb-4">
          <mxGeometry x="20" y="120" width="80" height="50" as="geometry" />
        </mxCell>
        <mxCell id="uodfpMHbg1HzAjFqGIbb-21" value="上报埋点" style="rounded=1;whiteSpace=wrap;html=1;" vertex="1" parent="uodfpMHbg1HzAjFqGIbb-4">
          <mxGeometry x="20" y="215" width="80" height="50" as="geometry" />
        </mxCell>
        <mxCell id="uodfpMHbg1HzAjFqGIbb-5" value="debug接口" style="swimlane;startSize=20;" vertex="1" parent="uodfpMHbg1HzAjFqGIbb-2">
          <mxGeometry x="260" width="120" height="390" as="geometry" />
        </mxCell>
        <mxCell id="uodfpMHbg1HzAjFqGIbb-23" value="异步写入" style="rounded=1;whiteSpace=wrap;html=1;" vertex="1" parent="uodfpMHbg1HzAjFqGIbb-5">
          <mxGeometry x="20" y="215" width="80" height="50" as="geometry" />
        </mxCell>
        <mxCell id="uodfpMHbg1HzAjFqGIbb-6" value="Kafka" style="swimlane;startSize=20;" vertex="1" parent="uodfpMHbg1HzAjFqGIbb-2">
          <mxGeometry x="380" width="120" height="390" as="geometry" />
        </mxCell>
        <mxCell id="uodfpMHbg1HzAjFqGIbb-25" value="生产/消费" style="rounded=1;whiteSpace=wrap;html=1;" vertex="1" parent="uodfpMHbg1HzAjFqGIbb-6">
          <mxGeometry x="20" y="215" width="80" height="50" as="geometry" />
        </mxCell>
        <mxCell id="uodfpMHbg1HzAjFqGIbb-7" value="Flink" style="swimlane;startSize=20;" vertex="1" parent="uodfpMHbg1HzAjFqGIbb-2">
          <mxGeometry x="500" width="120" height="390" as="geometry" />
        </mxCell>
        <mxCell id="uodfpMHbg1HzAjFqGIbb-27" value="规则校验/&lt;br&gt;过滤" style="rounded=1;whiteSpace=wrap;html=1;" vertex="1" parent="uodfpMHbg1HzAjFqGIbb-7">
          <mxGeometry x="20" y="215" width="80" height="50" as="geometry" />
        </mxCell>
        <mxCell id="uodfpMHbg1HzAjFqGIbb-8" value="采集中心" style="swimlane;startSize=20;" vertex="1" parent="uodfpMHbg1HzAjFqGIbb-2">
          <mxGeometry x="620" width="120" height="390" as="geometry" />
        </mxCell>
        <mxCell id="uodfpMHbg1HzAjFqGIbb-16" style="edgeStyle=orthogonalEdgeStyle;rounded=0;orthogonalLoop=1;jettySize=auto;html=1;exitX=0.5;exitY=1;exitDx=0;exitDy=0;entryX=0.5;entryY=0;entryDx=0;entryDy=0;" edge="1" parent="uodfpMHbg1HzAjFqGIbb-8" source="uodfpMHbg1HzAjFqGIbb-12" target="uodfpMHbg1HzAjFqGIbb-15">
          <mxGeometry relative="1" as="geometry" />
        </mxCell>
        <mxCell id="uodfpMHbg1HzAjFqGIbb-12" value="注册Session" style="rounded=1;whiteSpace=wrap;html=1;" vertex="1" parent="uodfpMHbg1HzAjFqGIbb-8">
          <mxGeometry x="20" y="40" width="80" height="50" as="geometry" />
        </mxCell>
        <mxCell id="uodfpMHbg1HzAjFqGIbb-32" style="edgeStyle=orthogonalEdgeStyle;rounded=0;orthogonalLoop=1;jettySize=auto;html=1;exitX=0.5;exitY=1;exitDx=0;exitDy=0;" edge="1" parent="uodfpMHbg1HzAjFqGIbb-8" source="uodfpMHbg1HzAjFqGIbb-15" target="uodfpMHbg1HzAjFqGIbb-29">
          <mxGeometry relative="1" as="geometry" />
        </mxCell>
        <mxCell id="uodfpMHbg1HzAjFqGIbb-15" value="注册Session" style="rounded=1;whiteSpace=wrap;html=1;" vertex="1" parent="uodfpMHbg1HzAjFqGIbb-8">
          <mxGeometry x="20" y="120" width="80" height="50" as="geometry" />
        </mxCell>
        <mxCell id="uodfpMHbg1HzAjFqGIbb-34" style="edgeStyle=orthogonalEdgeStyle;rounded=0;orthogonalLoop=1;jettySize=auto;html=1;exitX=0.5;exitY=1;exitDx=0;exitDy=0;" edge="1" parent="uodfpMHbg1HzAjFqGIbb-8" source="uodfpMHbg1HzAjFqGIbb-29" target="uodfpMHbg1HzAjFqGIbb-33">
          <mxGeometry relative="1" as="geometry" />
        </mxCell>
        <mxCell id="uodfpMHbg1HzAjFqGIbb-29" value="输入Session" style="rounded=1;whiteSpace=wrap;html=1;" vertex="1" parent="uodfpMHbg1HzAjFqGIbb-8">
          <mxGeometry x="20" y="215" width="80" height="50" as="geometry" />
        </mxCell>
        <mxCell id="uodfpMHbg1HzAjFqGIbb-33" value="测试报告" style="rounded=1;whiteSpace=wrap;html=1;" vertex="1" parent="uodfpMHbg1HzAjFqGIbb-8">
          <mxGeometry x="20" y="310" width="80" height="50" as="geometry" />
        </mxCell>
        <mxCell id="uodfpMHbg1HzAjFqGIbb-11" style="edgeStyle=orthogonalEdgeStyle;rounded=0;orthogonalLoop=1;jettySize=auto;html=1;exitX=1;exitY=0.5;exitDx=0;exitDy=0;entryX=0;entryY=0.5;entryDx=0;entryDy=0;dashed=1;" edge="1" parent="uodfpMHbg1HzAjFqGIbb-2" source="uodfpMHbg1HzAjFqGIbb-9" target="uodfpMHbg1HzAjFqGIbb-10">
          <mxGeometry relative="1" as="geometry" />
        </mxCell>
        <mxCell id="uodfpMHbg1HzAjFqGIbb-13" style="edgeStyle=orthogonalEdgeStyle;rounded=0;orthogonalLoop=1;jettySize=auto;html=1;exitX=1;exitY=0.5;exitDx=0;exitDy=0;dashed=1;" edge="1" parent="uodfpMHbg1HzAjFqGIbb-2" source="uodfpMHbg1HzAjFqGIbb-10" target="uodfpMHbg1HzAjFqGIbb-12">
          <mxGeometry relative="1" as="geometry" />
        </mxCell>
        <mxCell id="uodfpMHbg1HzAjFqGIbb-14" value="ws" style="edgeLabel;html=1;align=center;verticalAlign=middle;resizable=0;points=[];" vertex="1" connectable="0" parent="uodfpMHbg1HzAjFqGIbb-13">
          <mxGeometry x="-0.02" y="-2" relative="1" as="geometry">
            <mxPoint as="offset" />
          </mxGeometry>
        </mxCell>
        <mxCell id="uodfpMHbg1HzAjFqGIbb-18" style="edgeStyle=orthogonalEdgeStyle;rounded=0;orthogonalLoop=1;jettySize=auto;html=1;exitX=0;exitY=0.5;exitDx=0;exitDy=0;entryX=1;entryY=0.5;entryDx=0;entryDy=0;dashed=1;" edge="1" parent="uodfpMHbg1HzAjFqGIbb-2" source="uodfpMHbg1HzAjFqGIbb-15" target="uodfpMHbg1HzAjFqGIbb-17">
          <mxGeometry relative="1" as="geometry" />
        </mxCell>
        <mxCell id="uodfpMHbg1HzAjFqGIbb-19" value="ws" style="edgeLabel;html=1;align=center;verticalAlign=middle;resizable=0;points=[];" vertex="1" connectable="0" parent="uodfpMHbg1HzAjFqGIbb-18">
          <mxGeometry x="0.095" y="1" relative="1" as="geometry">
            <mxPoint as="offset" />
          </mxGeometry>
        </mxCell>
        <mxCell id="uodfpMHbg1HzAjFqGIbb-22" style="edgeStyle=orthogonalEdgeStyle;rounded=0;orthogonalLoop=1;jettySize=auto;html=1;exitX=1;exitY=0.5;exitDx=0;exitDy=0;entryX=0;entryY=0.5;entryDx=0;entryDy=0;dashed=1;" edge="1" parent="uodfpMHbg1HzAjFqGIbb-2" source="uodfpMHbg1HzAjFqGIbb-20" target="uodfpMHbg1HzAjFqGIbb-21">
          <mxGeometry relative="1" as="geometry" />
        </mxCell>
        <mxCell id="uodfpMHbg1HzAjFqGIbb-24" style="edgeStyle=orthogonalEdgeStyle;rounded=0;orthogonalLoop=1;jettySize=auto;html=1;exitX=1;exitY=0.5;exitDx=0;exitDy=0;dashed=1;" edge="1" parent="uodfpMHbg1HzAjFqGIbb-2" source="uodfpMHbg1HzAjFqGIbb-21" target="uodfpMHbg1HzAjFqGIbb-23">
          <mxGeometry relative="1" as="geometry" />
        </mxCell>
        <mxCell id="uodfpMHbg1HzAjFqGIbb-26" style="edgeStyle=orthogonalEdgeStyle;rounded=0;orthogonalLoop=1;jettySize=auto;html=1;exitX=1;exitY=0.5;exitDx=0;exitDy=0;dashed=1;" edge="1" parent="uodfpMHbg1HzAjFqGIbb-2" source="uodfpMHbg1HzAjFqGIbb-23" target="uodfpMHbg1HzAjFqGIbb-25">
          <mxGeometry relative="1" as="geometry" />
        </mxCell>
        <mxCell id="uodfpMHbg1HzAjFqGIbb-28" style="edgeStyle=orthogonalEdgeStyle;rounded=0;orthogonalLoop=1;jettySize=auto;html=1;exitX=1;exitY=0.5;exitDx=0;exitDy=0;dashed=1;" edge="1" parent="uodfpMHbg1HzAjFqGIbb-2" source="uodfpMHbg1HzAjFqGIbb-25" target="uodfpMHbg1HzAjFqGIbb-27">
          <mxGeometry relative="1" as="geometry" />
        </mxCell>
        <mxCell id="uodfpMHbg1HzAjFqGIbb-30" style="edgeStyle=orthogonalEdgeStyle;rounded=0;orthogonalLoop=1;jettySize=auto;html=1;exitX=1;exitY=0.5;exitDx=0;exitDy=0;dashed=1;" edge="1" parent="uodfpMHbg1HzAjFqGIbb-2" source="uodfpMHbg1HzAjFqGIbb-27" target="uodfpMHbg1HzAjFqGIbb-29">
          <mxGeometry relative="1" as="geometry" />
        </mxCell>
      </root>
    </mxGraphModel>
  </diagram>
</mxfile>
